<svg width="476" height="462" viewBox="0 0 476 462" fill="none" xmlns="http://www.w3.org/2000/svg">
<path d="M401.59 8.92708C440.89 28.3271 461.09 83.1271 470.29 135.827C479.49 188.427 477.59 238.927 458.69 279.927C439.89 320.827 404.09 352.327 365.79 387.827C327.39 423.327 286.39 463.027 246.49 461.627C206.49 460.327 167.49 417.927 134.59 380.627C101.59 343.427 74.5902 311.127 46.5902 268.827C18.4902 226.527 -10.7098 174.227 3.89023 138.227C18.5902 102.227 76.8902 82.6271 124.49 65.8271C171.99 49.1271 208.79 35.4271 256.29 20.5271C303.89 5.62707 362.29 -10.4729 401.59 8.92708Z" fill="white"/>
</svg>
