<svg width="1440" height="191" viewBox="0 0 1440 191" fill="none" xmlns="http://www.w3.org/2000/svg">
<path d="M0 110L34.4 102C68.8 94 137.6 78 206.08 73C274.72 68 342.88 74 411.52 64.5C480 55 548.8 30 617.28 27.5C685.92 25 754.08 45 822.72 47.7C891.2 50.3 960 35.7 1028.48 36.3C1097.12 37 1165.28 53 1233.92 49.5C1302.4 46 1371.2 23 1405.6 11.5L1440 0V191H1405.6C1371.2 191 1302.4 191 1233.92 191C1165.28 191 1097.12 191 1028.48 191C960 191 891.2 191 822.72 191C754.08 191 685.92 191 617.28 191C548.8 191 480 191 411.52 191C342.88 191 274.72 191 206.08 191C137.6 191 68.8 191 34.4 191H0V110Z" fill="#004586"/>
</svg>
