<svg width="1440" height="201" viewBox="0 0 1440 201" fill="none" xmlns="http://www.w3.org/2000/svg">
<path d="M1440 95.7969L1405.6 100.088C1371.2 104.478 1302.4 113.06 1233.92 122.939C1165.28 132.719 1097.12 143.695 1028.48 145.691C960 147.687 891.2 140.702 822.72 147.986C754.08 155.37 685.92 176.925 617.28 173.332C548.8 169.64 480 140.702 411.52 142.997C342.88 145.392 274.72 178.92 206.08 192.591C137.6 206.262 68.7999 199.876 34.4 196.783L6.47849e-07 193.589L1.7572e-05 -3.81849e-06L34.4 -8.1114e-07C68.7999 2.19619e-06 137.6 8.21089e-06 206.08 1.41976e-05C274.72 2.01983e-05 342.88 2.6157e-05 411.52 3.21577e-05C480 3.81444e-05 548.8 4.41591e-05 617.28 5.01458e-05C685.92 5.61465e-05 754.08 6.21053e-05 822.72 6.8106e-05C891.2 7.40927e-05 960 8.01074e-05 1028.48 8.60941e-05C1097.12 9.20948e-05 1165.28 9.80535e-05 1233.92 0.000104054C1302.4 0.000110041 1371.2 0.000116056 1405.6 0.000119063L1440 0.00012207L1440 95.7969Z" fill="#004586"/>
</svg>
